HIERARCHY
ROOT hip
{
	OFFSET 0.000000 0.000000 0.000000 
	CHANNELS 6 Xposition Yposition Zposition Xrotation Zrotation Yrotation
	JOINT abdomen
	{
		OFFSET 0.000000 3.402643 0.000000 
		CHANNELS 3 Xrotation Zrotation Yrotation
		JOINT chest
		{
			OFFSET 0.000000 8.438565 -0.680529 
			CHANNELS 3 Xrotation Zrotation Yrotation
			JOINT neck
			{
				OFFSET 0.000000 10.207942 -0.272212 
				CHANNELS 3 Xrotation Zrotation Yrotation
				JOINT head
				{
					OFFSET 0.000000 3.130431 0.000000 
					CHANNELS 3 Xrotation Zrotation Yrotation
					End Site
					{
						OFFSET 0.000000 3.130435 0.000000 
					}
				}
			}
			JOINT lCollar
			{
				OFFSET 3.470700 6.669187 -0.816635 
				CHANNELS 3 Yrotation Zrotation Xrotation
				JOINT lShldr
				{
					OFFSET 3.198488 0.000000 0.000000 
					CHANNELS 3 Zrotation Yrotation Xrotation
					JOINT lForeArm
					{
						OFFSET 10.139888 0.000000 0.000000 
						CHANNELS 3 Yrotation Zrotation Xrotation
						JOINT lHand
						{
							OFFSET 8.370511 0.000000 0.000000 
							CHANNELS 3 Zrotation Yrotation Xrotation
							End Site
							{
								OFFSET 4.083176 0.000000 0.000000 
							}
						}
					}
				}
			}
			JOINT rCollar
			{
				OFFSET -3.470700 6.669187 -0.816635 
				CHANNELS 3 Yrotation Zrotation Xrotation
				JOINT rShldr
				{
					OFFSET -3.198488 0.000000 0.000000 
					CHANNELS 3 Zrotation Yrotation Xrotation
					JOINT rForeArm
					{
						OFFSET -10.139888 0.000000 0.000000 
						CHANNELS 3 Yrotation Zrotation Xrotation
						JOINT rHand
						{
							OFFSET -8.370511 0.000000 0.000000 
							CHANNELS 3 Zrotation Yrotation Xrotation
							End Site
							{
								OFFSET -4.083176 0.000000 0.000000 
							}
						}
					}
				}
			}
		}
	}
	JOINT lThigh
	{
		OFFSET 5.308129 -1.633274 1.361059 
		CHANNELS 3 Xrotation Zrotation Yrotation
		JOINT lShin
		{
			OFFSET -2.041588 -20.007561 0.000000 
			CHANNELS 3 Xrotation Zrotation Yrotation
			JOINT lFoot
			{
				OFFSET 0.000000 -19.190928 -1.224953 
				CHANNELS 3 Xrotation Yrotation Zrotation
				End Site
				{
					OFFSET 0.000000 -2.449906 4.627600 
				}
			}
		}
	}
	JOINT rThigh
	{
		OFFSET -5.308129 -1.633274 1.361059 
		CHANNELS 3 Xrotation Zrotation Yrotation
		JOINT rShin
		{
			OFFSET 2.041588 -20.007561 0.000000 
			CHANNELS 3 Xrotation Zrotation Yrotation
			JOINT rFoot
			{
				OFFSET 0.000000 -19.190928 -1.224953 
				CHANNELS 3 Xrotation Yrotation Zrotation
				End Site
				{
					OFFSET 0.000000 -2.449906 4.627600 
				}
			}
		}
	}
}
MOTION
Frames: 13
Frame Time: 0.033333
-0.222465 49.991756 2.345229 -1.007130 1.757547 -0.996524 0.000000 0.000000 0.000000 -8.709300 -0.771194 -1.572517 15.431033 -3.945133 0.547595 10.678534 -0.781234 0.371059 -3.521967 9.154817 6.304141 -32.866032 23.143406 -49.093582 -19.053049 7.774316 18.955902 -5.384865 9.879639 -8.263585 3.089181 -14.089146 8.026228 30.261511 -10.550810 -45.800575 14.582134 -13.041202 57.825535 3.675592 -7.877656 -8.444386 1.296981 2.994522 6.136858 12.593980 -3.135737 -4.451710 -6.961382 0.053558 0.248635 2.819279 -8.373657 -14.204094 10.657102 1.022111 -1.116765 -8.058269 -0.011706 -0.853172 
-0.146227 49.929729 2.200183 -1.197412 1.816063 -1.113650 0.000000 0.000000 0.000000 -8.019841 -0.810363 -1.220858 14.588282 -4.032999 0.577492 11.061151 -0.605460 0.312483 -3.521967 9.154817 6.304141 -35.741272 21.874468 -49.495239 -19.670940 8.108545 17.407497 -6.363405 8.531825 -8.073113 3.089181 -14.089146 8.026228 32.689507 -9.785949 -48.562962 15.777492 -13.851141 56.563889 2.018867 -8.576887 -8.567396 0.799255 3.226353 6.735285 13.869970 -3.711375 -4.993157 -7.306252 -0.046392 0.931562 2.235523 -8.758300 -14.528835 11.988839 1.071317 -0.600611 -8.508348 0.016944 -0.873402 
0.016411 49.801449 1.953560 -1.292586 2.138420 -0.879387 0.000000 0.000000 0.000000 -7.211776 -1.152082 -1.221045 13.710022 -3.847538 0.450172 11.159979 -0.624996 0.195301 -3.521967 9.154817 6.304141 -39.706203 20.252497 -49.556534 -20.289413 8.486137 16.040731 -7.948225 6.653355 -7.766373 3.089181 -14.089146 8.026228 35.638000 -8.604805 -51.529671 16.776520 -14.489081 54.661835 0.235581 -9.448045 -8.672379 -0.224690 3.182806 7.077806 15.836491 -4.278765 -6.152939 -7.231901 -0.123600 1.666817 1.063859 -9.627464 -15.046288 14.342693 1.012650 -0.211135 -9.446669 -0.026741 -0.778294 
0.200226 49.577637 1.683625 -1.452709 2.255699 -0.683833 0.000000 0.000000 0.000000 -5.923376 -1.240004 -1.103891 12.344882 -3.593703 0.293005 11.122023 -0.751952 0.078118 -3.521967 9.154817 6.304141 -44.413162 18.352455 -48.601006 -20.699919 8.679837 14.455607 -9.290874 4.849061 -7.435020 3.089181 -14.089146 8.026228 39.113884 -7.456634 -54.891872 17.531719 -14.906312 54.292183 -1.637300 -10.330414 -8.761106 -1.697383 3.471547 7.525210 19.018600 -4.778821 -8.830269 -7.763611 -0.301969 3.034630 -0.284011 -10.330822 -15.420328 17.129930 0.914463 0.318244 -11.078202 0.015184 -0.849108 
0.380303 49.347832 1.410336 -1.619766 2.158022 -0.742397 0.000000 0.000000 0.000000 -4.534352 -1.357322 -0.693628 11.005860 -3.535156 -0.000602 10.920979 -0.654290 -0.263766 -3.521967 9.154817 6.304141 -49.796509 15.949702 -47.227543 -20.980507 8.756926 12.569139 -8.892632 2.932853 -7.183348 3.089181 -14.089146 8.026228 43.479954 -6.290414 -58.280842 18.002005 -15.065691 56.682571 -2.978279 -11.010394 -8.808453 -3.534141 4.021874 7.878335 22.994797 -4.711523 -10.361718 -8.941418 -0.532995 4.527720 -1.650764 -10.785036 -15.545387 19.818043 0.719501 0.852645 -12.260242 -0.013752 -0.801798 
0.551773 49.243111 1.207343 -1.976667 1.942882 -1.270126 0.000000 0.000000 0.000000 -2.817466 -1.533195 0.185480 9.280416 -3.154216 -0.411147 11.203322 -0.185534 -0.664091 -3.521967 9.154817 6.304141 -55.603180 13.653505 -45.273640 -21.106529 8.819995 12.620165 -10.728921 0.815730 -6.700813 3.089181 -14.089146 8.026228 48.865299 -5.085593 -61.147728 18.167900 -14.937919 58.638443 -4.817175 -12.165563 -8.842820 -4.822014 4.957877 8.296167 26.474627 -4.077535 -8.585108 -9.903824 -0.679771 5.309545 -2.197862 -10.957973 -15.605613 20.979998 0.621641 1.493030 -12.340469 0.048829 -0.715777 
0.720997 49.261250 1.052849 -2.325117 1.971074 -2.296250 0.000000 0.000000 0.000000 -1.215499 -2.304275 1.084678 7.768716 -2.548597 -0.772458 11.875445 0.546796 -0.976518 -3.521967 9.154817 6.304141 -61.289474 12.097043 -42.574417 -21.198296 8.931130 13.808995 -14.338867 -0.079705 -6.157204 3.089181 -14.089146 8.026228 55.015934 -3.360301 -62.756241 18.147207 -14.631922 60.073570 -5.825896 -12.977211 -8.858650 -5.097199 6.785958 10.042531 28.101151 -4.449103 -7.317861 -10.691967 -0.798751 5.845651 -2.148585 -11.237321 -15.779683 20.688705 0.621769 2.492825 -11.995149 0.085232 -1.044796 
0.924676 49.309208 0.946107 -2.425275 2.096145 -3.293097 0.000000 0.000000 0.000000 -0.379157 -3.221751 1.359118 6.782352 -1.142315 -1.230808 12.908319 0.117173 -0.898436 -3.521967 9.154817 6.304141 -66.575203 11.651934 -38.834732 -21.209135 8.903517 14.608439 -17.019547 -0.277852 -5.817074 3.089181 -14.089146 8.026228 61.236301 -1.477539 -60.415188 18.060595 -14.395377 60.490437 -5.747328 -13.151299 -8.850868 -5.175074 8.513844 11.124125 28.452503 -4.493351 -7.608551 -10.336325 -0.767057 5.694211 -2.158549 -11.566193 -15.904984 20.087015 0.592528 3.182162 -11.579114 0.118587 -1.417991 
1.170754 49.316467 0.840512 -2.440013 2.133061 -4.152961 0.000000 0.000000 0.000000 0.870845 -3.875768 1.418717 4.651929 -1.015364 -1.299143 14.636320 0.683486 -1.015669 -3.521967 9.154817 6.304141 -71.634697 10.649734 -38.306633 -21.136921 9.006624 17.561790 -19.829338 0.491474 -5.675367 3.089181 -14.089146 8.026228 66.839500 0.126587 -56.494732 18.043226 -14.256246 59.666615 -4.673722 -12.099981 -8.840081 -5.241986 10.373450 11.765971 27.985508 -4.322225 -9.269125 -8.284421 -0.515536 4.464341 -2.324606 -11.961912 -16.184839 19.730219 0.680452 4.066223 -11.122002 0.191260 -1.846602 
1.466777 49.354439 0.752794 -2.515470 2.033782 -4.827064 0.000000 0.000000 0.000000 2.245698 -4.383442 1.410346 2.824420 -1.376594 -1.309155 15.747230 1.523058 -1.279624 -3.521967 9.154817 6.304141 -75.883293 9.693918 -37.625137 -20.633015 8.440313 18.877277 -21.285959 0.316724 -5.465254 3.089181 -14.089146 8.026228 72.021240 1.360631 -52.212994 18.118248 -14.260146 61.458889 -3.044120 -10.912072 -8.804284 -4.939409 12.304933 12.247932 26.802706 -3.956343 -11.204473 -6.077142 -0.296779 3.109378 -2.246634 -12.187312 -16.357643 19.016588 0.680463 5.144637 -10.299395 0.249870 -2.300936 
1.847936 49.429771 0.729523 -2.873285 1.963706 -5.462127 0.000000 0.000000 0.000000 3.971113 -4.988533 1.499519 1.788797 -1.493585 -1.563242 16.019276 1.952352 -1.612056 -3.521967 9.154817 6.304141 -79.526703 7.998400 -39.590214 -20.058865 7.964645 19.823870 -20.200827 1.433803 -5.856973 3.089181 -14.089146 8.026228 76.950684 2.384031 -47.718090 18.270782 -14.357717 62.717640 -1.326444 -9.288068 -8.701591 -4.091844 14.009972 12.666863 25.201143 -3.488739 -12.701143 -4.057152 -0.149306 1.874604 -1.631669 -12.516708 -16.660810 17.945961 0.690232 6.092114 -9.151598 0.297110 -2.702883 
2.334984 49.508820 0.716290 -3.261610 1.680298 -5.969090 0.000000 0.000000 0.000000 5.978645 -4.988910 1.322706 0.316997 -1.776544 -1.719740 17.018095 2.400961 -1.944925 -3.521967 9.154817 6.304141 -83.255989 5.782863 -41.517479 -19.653980 7.716965 20.404133 -19.574324 1.292261 -5.893108 3.089181 -14.089146 8.026228 81.217323 3.603880 -42.432610 18.483269 -14.547642 62.421551 1.178383 -8.128582 -8.548185 -3.242056 15.684710 13.273644 23.644772 -2.989700 -12.782659 -2.809091 -0.073070 0.887427 -0.723847 -12.720234 -17.053617 16.359846 0.778366 6.900300 -7.696112 0.317430 -3.037703 
2.916099 49.619923 0.780834 -3.971837 1.116161 -6.348729 0.000000 0.000000 0.000000 8.603848 -4.609008 0.724243 -1.230143 -1.346760 -2.090643 18.017092 1.912825 -2.061680 -3.521967 9.154817 6.304141 -86.465187 3.736792 -41.830063 -19.372150 7.595512 21.654709 -18.411913 1.456249 -6.044366 3.089181 -14.089146 8.026228 84.837547 5.140511 -36.961761 18.710667 -14.810977 61.781040 6.286006 -6.304846 -8.160797 -2.188231 17.347723 13.901130 22.469652 -2.443938 -13.281636 -0.500517 0.099388 -1.049842 1.063591 -12.683860 -17.407701 13.888033 0.915178 7.759604 -5.638870 0.279525 -3.273088 
